<svg xmlns="http://www.w3.org/2000/svg" viewBox="0 0 800 800">
  <defs>
    <linearGradient id="bg" x1="0" y1="0" x2="0" y2="1">
      <stop offset="0" stop-color="#ecfdf5"/><stop offset="1" stop-color="#d1fae5"/>
    </linearGradient>
    <linearGradient id="ac" gradientTransform="rotate(200 .5 .5)">
      <stop offset="0" stop-color="#059669"/><stop offset="1" stop-color="#84cc16"/>
    </linearGradient>
  </defs>
  <rect width="800" height="800" fill="url(#bg)"/>
  <circle cx="640" cy="140" r="140" fill="#84cc16" opacity=".22"/>
  <circle cx="150" cy="660" r="110" fill="#059669" opacity=".12"/>
  <ellipse cx="400" cy="640" rx="240" ry="34" fill="#064e3b" opacity=".14"/>
  <circle cx="400" cy="380" r="250" fill="none" stroke="#059669" stroke-width="10" stroke-dasharray="34 26" opacity=".45"/>
  <g transform="translate(250 230) scale(3)" fill="url(#ac)">
    <path d="M30 18h40v8a6 6 0 0 1-2 4.5V78a8 8 0 0 1-8 8H40a8 8 0 0 1-8-8V30.5A6 6 0 0 1 30 26zM36 44h28v14H36z"/>
  </g>
  <rect x="300" y="680" width="200" height="12" rx="6" fill="#059669" opacity=".3"/>
</svg>